<?xml version="1.0" encoding="utf-8"?>
<!-- Generator: Adobe Illustrator 23.0.0, SVG Export Plug-In . SVG Version: 6.00 Build 0)  -->
<svg version="1.1" id="Layer_1" xmlns="http://www.w3.org/2000/svg" xmlns:xlink="http://www.w3.org/1999/xlink" x="0px" y="0px"
	 viewBox="0 0 612 319.9" style="enable-background:new 0 0 612 319.9;" xml:space="preserve">
<style type="text/css">
	.st0{fill:#608CB0;}
</style>
<g id="NZULaW.tif">
	<g>
		<path class="st0" d="M117.3,308.4c-4.9-0.4-9.8-1.2-14.6-2.2c-0.8-0.2-1.7-0.4-2.3-1.1c-0.5-0.6-0.6-1.4-0.6-2.1
			c-0.5-6.3,0.7-12.5,1.9-18.6c4.9-25.3,8.6-55,23.1-76.9c4-6,9.4-11.4,16.2-14.1c4.5-1.8,9.4-2.4,14.3-2.3c4.7,0,9.3,0.6,13.9,1.8
			c2.1,0.5,4.3,1.2,5.9,2.7c2,1.8,2.9,4.6,3.7,7.2c3.7,12.9,7,26.5,7.1,40c0,5.2-0.3,10.4,0.1,15.6c0.5,7.6-0.4,15.2-1.6,22.7
			c-0.9,5.6-1,14.4-4.3,19.1c-1.7,2.4-4.9,4-7.7,2.9c-2.3-0.8-3.8-3.3-4.2-5.7c-0.4-2.4,0-4.9,0.5-7.4c1.9-10.4,3.6-20.9,5.1-31.4
			c0.5-3.5,0.8-7.7-1.8-10.2c-1.3-1.2-3-1.8-4.8-2c-4.3-0.7-9.8-0.2-13.5,2.2c-3.8,2.5-4.2,6.3-5.1,10.6
			c-3.3,15.1-5.3,33.2-13.2,46.7c-0.5,0.9-1.1,1.8-2,2.3c-0.9,0.5-2,0.6-3.1,0.6C125.9,309,121.6,308.8,117.3,308.4z M170.2,223.2
			c0-3.5-0.1-7-0.5-10.4c-0.2-2.2-0.7-4.8-2.6-6c-2.6,0.1-3.9,3.1-4.7,5.6c-1.8,5.7-7.8,16.8-6.5,22.6c1.1,5,8.2,5.5,11.5,2.3
			c1.8-1.7,2.2-4.4,2.4-6.9C170,228,170.2,225.6,170.2,223.2z"/>
		<path class="st0" d="M586.3,187.6c-0.3,1.8-0.9,3.6-2,5.1c-2,2.7-5.9,4.1-8.7,2.4c-4.9-3-2.9-14.3-2.7-19.1c0.1-3.9-1.5-7-5.1-6.9
			c-6.1,0.1-7.8,9.3-8.7,13.8c-2.9,15.6-5.7,31.1-7.7,46.8c-1,8-1.7,16.1-2.1,24.1c-0.2,3.8,1.3,16.7,8.4,10c1.4-1.3,2.1-3,2.8-4.8
			c2.2-5.4,4.3-10.9,6.2-16.5c0.3-0.8,0.6-1.7,0.3-2.4c-0.4-1.1-1.8-1.5-3-1.7c-1.5-0.3-3.1-0.5-4.6-0.8c-1.4-0.2-2.7-0.5-3.9-1.2
			s-2-2.1-1.7-3.5c0.5-2,3-2.7,5-2.9c10.3-1.3,23.8-3.3,19.5,11c-1.4,4.8-2.9,9.5-4.4,14.3c-1.4,4.4-3,8.9-6,12.5
			c-4,4.8-10.1,7.3-16.3,8.2c-6.9,1-15,0.7-21.9-0.8c-8.4-1.9-13.1-8-15.5-15.9c-7.7-24.6,0-56.5,9.8-79.5
			c5.8-13.6,13.7-19.7,28.7-19.6c7.6,0.1,17.4-1.2,24.2,2.7c6.8,3.9,9.5,12.6,9.5,20.5C586.6,184.7,586.5,186.1,586.3,187.6z"/>
		<path class="st0" d="M21.5,95.7c3.1-8.2,8.9-10.6,17.4-9.9C53.8,87,68.6,87.2,83.5,88c5.8,0.3,6.7,2.2,4.6,7.5
			c-4.3,11.1-13.8,15.9-24.2,17.2c-10.8,1.4-22,2.2-32.8-1.1c-3.3-1-6.4-2.8-9.6-4.2C21.5,103.5,21.5,99.6,21.5,95.7z"/>
		<path class="st0" d="M494.8,179.4c-0.1,1.1-0.2,2.2-0.4,3.3c-2.1,16.2-4.3,32.3-6.3,48.5c-1,8.1-2,16.2-3,24.3
			c-0.8,6.7,0,16.5-2.5,22.6c-1.2,2.9-4.3,5.2-7.3,4.4c-2.7-0.7-4.3-3.5-5.5-5.9c-11.5-23-23-46-34.5-69c-0.7-1.5-1.4-2.9-2.2-4.3
			c-0.5-0.8-1.2-1.5-1.8-2.2c-0.4,1-1.1,2.1-1.1,3.1c-1.1,25.1-0.7,50.4-6.8,75c-0.5,1.9-1,4-2.4,5.4c-3.7,4.1-11.5,2.3-16.4,2.1
			c-7-0.2-14.1-1-21.1-1.6c-11.4-1.1-3.8-29.4-3-36.5c1.6-16.1,3.2-32.1,4.8-48.2c0.7-6.8,1.4-13.6,2.8-20.2
			c0.7-3.3,1.9-6.7,4.6-8.6c1.9-1.2,4.3-1.5,6.6-1.7c9.7-0.9,27.5-6.8,32.9,4.2c3.2,6.4,6.4,12.8,9.6,19.2
			c7.6,15.1,15.2,30.3,22.7,45.4c1,2,2,4.1,3.1,6.1c0.4,0.7,1.4,1.1,2.2,1.6c0.4-0.8,1-1.6,1.1-2.4c2.5-20.8,3.3-41.8,5.4-62.6
			c0.4-3.9,0.9-8,3.1-11.3c1.9-2.8,5.3-4.8,8.6-4.2c3.2,0.7,5.5,3.7,6.3,6.8C494.9,175.1,494.9,177.3,494.8,179.4z"/>
		<path class="st0" d="M438.1,30.2c0.1,11.2-2.5,22.8-3.6,33.7c-1,10-2,20-2.4,30c-0.5,11.8-2.7,23.1-6.1,34.3
			c-1.1,3.5-2.2,7.1-7.1,6.3c-3.7-0.6-6.5-3.8-6.3-8.6c0.8-19.7,3.5-39,6.3-58.5c0.5-3.4,1.4-7.4,0.5-10.8c-2.6,1.3-4.9,5.1-6.8,7.6
			c-5,6.7-9.8,13.7-15.1,20.3c-5.9,7.3-9.9,6.8-14.7-1.3c-5.1-8.7-10-17.5-15.1-26.1c-0.7-1.2-2.2-1.8-3.3-2.7
			c-0.2,1.2-0.6,2.5-0.7,3.7c-2.3,24.1-3.8,48.4-9.8,72c-0.8,3.4-2.4,6.7-4.3,9.6c-0.8,1.3-3.3,2.1-4.9,2
			c-5.8-0.1-11.6-0.7-17.4-1.1c-0.6,0-1.3,0-2,0c-9.3-0.9-11.5-3.1-10.4-12.3c1.2-10.6,3-21.1,4.5-31.7c1.8-12.5,3.2-25,5.3-37.4
			c1.5-8.9,3.7-17.7,5.7-26.6c1.2-5.2,4.7-7.5,10-7.4c5.9,0.1,11.8,0.5,17.6-0.1c7-0.8,10.7,2.6,13.8,8.2c5.3,9.3,11,18.4,16.7,27.5
			c2.4,3.9,3.5,3.9,6.3,0.2c5.4-7,10.8-14.1,16.2-21.1c4.5-5.9,8.8-13.3,14.2-18.3c2.4-2.2,5.6-3.8,8.9-3.6c1,0.1,2,0.3,2.6,1
			c0.6,0.7,0.8,1.6,0.9,2.5C437.9,24.4,438.1,27.3,438.1,30.2z"/>
		<path class="st0" d="M359.7,203.9c-0.1,3.8-0.5,7.3-0.9,10.2c-2.6,21.6-5.5,44.4-12.6,65c-5.9,17.1-18.7,21.8-38.5,18.5
			c-6.8-1.1-12.2-2.3-16.3-8.4c-2.5-3.7-3.8-8-4.7-12.3c-4.2-20.7,0.1-43.8,5.5-64c2.5-9.5,6.2-18.3,11.1-26.8
			c4.4-7.7,11.2-11.3,19-11.7c8.3-0.4,16.9,0.6,24.9,2.6C358.4,179.6,360.1,192.7,359.7,203.9z M349.8,204
			c0.3-6.3-0.2-12.7-4.1-17.4c-1.2-1.4-2.8-2.7-4.7-2.7c-3,0.1-4.7,3.3-5.7,6.1c-2.1,6.1-3.5,12.5-4.7,18.9
			c-4.4,23-8.8,46.5-9.9,69.9c-0.2,4.7,2.2,11.4,8.2,8.4c2.2-1.1,3.8-3.3,5-5.4c9.2-15.3,11.3-33.7,13.2-51.4
			c0.8-7.3,1.6-14.6,2.3-22C349.6,207,349.7,205.5,349.8,204z"/>
		<path class="st0" d="M266.1,29.3c3.3,0,6.5-0.2,9.8,0c11.5,1,18.9,7.7,19.1,19.3c0.2,11.6-0.5,23.4-2,34.9
			c-1.8,13.4-4.7,26.7-7.4,40c-1,4.7-2.6,9.4-4.6,13.8c-3.3,7-8.2,12.3-16.4,13.9c-8.7,1.7-17.3,1.8-26-0.4c-20.5-5-18-36.1-16.2-52
			c2.2-19.5,6.7-39.4,15.8-56.9c4.3-8.3,10.9-13.7,21.1-12.8C261.5,29.4,263.8,29.2,266.1,29.3z M258,126.5c-0.1,3.3,0,6.5,0.4,9.7
			c0.2,2,0.7,4.3,2.5,5.2c1.1,0.6,2.4,0.4,3.6,0c11.1-3.9,15.8-28.2,17-38.1c1.8-15.4,3.4-30.8,4.7-46.2c0.5-6.4,0.3-12.9-5.2-17.7
			c-2.5-2.2-4.9-2.4-6.6,0.3c-1.9,2.9-3.8,6.2-4.4,9.5c-2.8,14.5-5.4,29-7.7,43.5C260.5,103.7,258.2,115.2,258,126.5z"/>
		<path class="st0" d="M474.7,130.9c-1.3,0-2.6,0-3.9,0c-10.9-0.1-12.5-1.7-11.3-12.6c1-8.7,2.6-17.3,4.1-25.9
			c3.1-18.1,6.3-36.3,9.5-54.4c0.6-3.2,1.3-6.3,1.9-9.5c1.8-9.8,5.4-13.5,15.2-14.8c11.5-1.5,23.1-2.9,34.7-3.9
			c3.5-0.3,13.9-0.8,15.6,3.5c0.7,1.9-0.6,4.1-2.3,5.1c-1.8,1-3.9,1-5.9,1.1c-5.7,0.1-19.9-2.2-19.9,7.3c-0.6,4.7-7.1,32-1.5,33
			c1.6,0.3,3.3-0.3,4.9-0.4c2.6-0.1,5.2,1.1,6.7,3.2c0.2,0.3,0.4,0.6,0.4,1c0,0.3-0.3,0.6-0.5,0.8c-6.3,6.4-14.7,3.9-17.1,14.3
			c-1.8,7.6-3.1,15.2-4.7,22.8c-1,4.8-2.1,9.5-3.1,14.2c-0.9,4.3-0.2,5.4,4.2,5.4c2.2,0,4.5-0.6,6.7-0.9c6.4-0.8,12.8-1.7,19.2-2.1
			c1.2-0.1,2.9,2.1,3.6,3.6c0.3,0.6-1.4,2.6-2.6,3.2c-2,1-4.3,1.6-6.5,1.8c-15.8,1.6-31.5,3.2-47.3,4.7
			C474.7,131.2,474.7,131.1,474.7,130.9z"/>
		<path class="st0" d="M130.6,117c0-0.1,0-0.1,0-0.2c0.1-17.7,3.6-35.3,9.5-52c2.1-5.8,4.5-11.6,8.3-16.5c9.5-11.9,29.5-12,43-7.7
			c9.3,3,15.1,12.5,13.4,22c-0.5,2.9-1.2,5.7-1.7,8.5c-0.6,2.9-2.1,5-5.2,4.6c-3-0.4-6-1.6-6.2-5.1c-0.2-4.5,0.1-9.1,0.7-13.5
			c0.6-5.1-0.4-8.2-4-9.6c-3.3-1.3-6.7,0.8-8.5,6c-1.6,4.6-2.9,9.3-3.8,14.1c-2.6,13.6-5.2,27.3-7.3,41c-1.4,8.9-1.9,18-2.6,27
			c-0.2,1.9,0,4,0.6,5.8c1.9,5.2,6.3,6.1,9.4,1.7c2.8-3.9,4.5-8.6,7-12.7c2.1-3.5,4.4-7.1,7.2-10.1c1.7-1.9,4.7-0.2,4.9,2.3
			c0.9,8.7-11.3,27.6-19.8,30.3c-9.5,3-19.3,2.3-28.9,0.6C130.5,150.5,130.6,129.7,130.6,117z"/>
		<path class="st0" d="M225.6,301.3c-5.5-0.1-11-0.4-16.6-0.3c-4.2,0.1-6-1.8-5.7-5.9c0.2-3.6,0-7.2,0.7-10.6
			c3.4-16.5,7.3-32.8,10.4-49.3c2-10.8,2.7-21.8,4.6-32.6c2.2-12.6,5.6-16.5,19.3-16.9c4.2-0.1,8.5-0.2,12.7,0c6.1,0.4,7.1,2,6,8
			c-1.8,9.2-3.6,18.4-5.2,27.6c-2.5,14.3-4.8,28.6-7.3,42.9c-1.2,7-2.6,14-4.2,20.9c-1.3,5.7-1.4,5.9,4.8,6c3.9,0,7.7-0.8,11.6-1
			c3.9-0.2,8.2-1.2,12-0.6c0.4,0.1,0.8,0.1,1.2,0.3c3.4,0.9,3.4,5.8,0.1,7c-10.9,4-22.9,3.2-34.4,4.3
			C232.1,301.2,228.9,301.3,225.6,301.3z"/>
		<path class="st0" d="M99.2,138.3c-0.9,4.7-1.1,9.7-2.7,14.2c-4.5,12.2-15,18.3-26.2,22.9c-5.2,2.1-8.2,0-10-5.8
			c-1.3-4.3-2.6-8.7-3.1-13.2c-0.5-4.5,1.7-8.3,6-10.1c10.1-4.3,20.3-8.5,30.6-12.4C98.3,132.3,100,133.9,99.2,138.3z"/>
		<path class="st0" d="M84.4,56.6c-10,0.4-16.2-2.9-21.2-8.3c-4.1-4.4-3.4-8.4,1.3-12.2c1.7-1.4,3.3-2.9,4.9-4.5
			c4.4-4.6,11.3-6.2,16.7-2.8c6.6,4.1,12.9,8.6,19.1,13.3c3.9,3,3.1,9-1.3,10.2C96.7,54.2,89.4,55.5,84.4,56.6z"/>
	</g>
</g>
</svg>
