<?xml version="1.0" encoding="utf-8"?>
<!-- Generator: Adobe Illustrator 23.0.0, SVG Export Plug-In . SVG Version: 6.00 Build 0)  -->
<svg version="1.1" id="Layer_1" xmlns="http://www.w3.org/2000/svg" xmlns:xlink="http://www.w3.org/1999/xlink" x="0px" y="0px"
	 viewBox="0 0 1970.7 3316.4" style="enable-background:new 0 0 1970.7 3316.4;" xml:space="preserve">
<style type="text/css">
	.st0{fill:#976036;}
	.st1{fill:#CE9D74;}
	.st2{fill:#E2B68C;}
	.st3{fill:#909BA3;}
	.st4{fill:#F3F9FD;}
	.st5{fill:#364F63;}
	.st6{fill:#94C0D1;}
	.st7{fill:#CCDCE9;}
	.st8{fill:#FFFFFF;}
	.st9{fill:#416176;}
	.st10{fill:#7F7573;}
	.st11{fill:#992A20;}
	.st12{fill:#376289;}
	.st13{fill:#608CB0;}
	.st14{opacity:0.53;fill:none;stroke:#364F63;stroke-width:7.6758;stroke-linecap:round;stroke-miterlimit:10;}
	.st15{fill:#EEF3F7;}
	.st16{fill:#B5A18A;}
	.st17{fill:#9B8A77;}
</style>
<g>
	<rect x="-4.3" y="2228.1" class="st0" width="1983.6" height="1104.7"/>
	<rect x="-4.3" y="2305.4" class="st1" width="1983.6" height="602.8"/>
	<rect x="-4.3" y="2030.1" class="st2" width="1983.6" height="771.6"/>
	<path class="st1" d="M344.5,2688c-2.9,2.5,1.2,17.8,2.1,20.6c4,13.5,14,24.8,28.6,25.3c49.8,1.5,99.7,1.5,149.6,1.5
		c60.1,0,120.2-0.2,180.3-0.6c58.9-0.3,117.8-0.7,176.8-1.2c39.3-0.3,78.5-0.6,117.8-1c6.5-0.1,13.1-0.2,19.6-0.2
		c23.2-0.1,46.4-0.2,69.6-0.2c54.5-0.2,108.9-0.4,163.4-0.7c63-0.3,126-0.7,189-1.2c35.1-0.3,70.2-0.7,105.3-1
		c17.5-0.2,35.1-0.8,52.7-0.5c12.7,0.2,27.1,1.1,37.6-7.6c2.9-2.4,5.6-5.3,7.2-8.7c1.7-3.5,2.2-7.4,2.2-11.3
		c0.1-17.6-7.9-35.7-12.5-52.7c-2.6-9.5-5.2-19.1-7.7-28.6c-7.2-26.7-14.4-53.4-21.6-80c-12.9-47.9-25.9-95.9-38.8-143.8
		c-0.6-2.2-1.1-8.6-2.8-10.3c0,0-19.1-18.5-33-14S360.7,2673.9,360.7,2673.9S344.5,2687.9,344.5,2688z"/>
	<g>
		<g>
			<path class="st3" d="M1631.5,2682.5c0,0-1.4,22.2-14.8,24.2s-603.5,3-603.5,3s-640.5,2-653.9,0c-13.4-2-14.8-24.2-14.8-24.2"/>
			<g>
				<g>
					<path class="st4" d="M1529.8,1693.9H443.6c-15.7,0-28.4,12.7-28.4,28.4v620.9c0,15.7,12.7,28.4,28.4,28.4h1086.2
						c15.7,0,28.4-12.7,28.4-28.4v-620.9C1558.2,1706.6,1545.5,1693.9,1529.8,1693.9z"/>
					<path class="st5" d="M425.5,2340.3v-615c0-11.6,9.4-21,21-21h1080.4c11.6,0,21,9.4,21,21v615c0,11.6-9.4,21-21,21H446.5
						C434.9,2361.3,425.5,2351.9,425.5,2340.3z"/>
					<path class="st6" d="M446.1,2334.4v-603.3c0-3.5,2.8-6.3,6.3-6.3H1521c3.5,0,6.3,2.8,6.3,6.3v603.3c0,3.5-2.8,6.3-6.3,6.3
						H452.4C448.9,2340.7,446.1,2337.9,446.1,2334.4z"/>
				</g>
				<g>
					<path class="st4" d="M1525,2368.3H447.8c-21.8,0-27,7.5-29.3,16.9l-73.1,289.5c-3,12.1,0.4,21.9,25.5,21.9l1234.9-2
						c24.7,0,27.9-9.9,24.7-21.9l-76.4-287.7C1551.7,2375.7,1546.6,2368.3,1525,2368.3z"/>
					<path class="st7" d="M1169.7,2576.9l-361.2,0.4c-13.3,0-24.4,5.1-24.9,11.3l-6.3,80.7c-0.5,6.7,10.3,12.1,24.1,12.1l376.9-0.6
						c13.8,0,24.5-5.5,23.9-12.2l-7.5-80.5C1194.1,2581.9,1183,2576.9,1169.7,2576.9z"/>
					<g>
						<path class="st7" d="M1484.5,2381.8l-995.7,0.1c-11.9,0-22.4,4.1-23.6,9.2l-39.3,170.7c-1.4,5.9,8,10.8,20.9,10.8l1082.1-1.1
							c12.7,0,21.9-4.8,20.5-10.8L1508,2391C1506.7,2385.9,1496.2,2381.8,1484.5,2381.8z"/>
						<g>
							<g>
								<g>
									<path class="st5" d="M650,2390.9l-44,0c-4.8,0-8.9,1.7-9.3,3.7l-0.4,2.4c-0.4,2.1,3.2,3.7,8,3.7l44.2,0
										c4.8,0,8.9-1.7,9.2-3.7l0.3-2.4C658.4,2392.5,654.7,2390.9,650,2390.9z"/>
									<path class="st5" d="M718.6,2390.9l-43.9,0c-4.8,0-8.8,1.7-9.1,3.7l-0.3,2.4c-0.3,2.1,3.4,3.7,8.1,3.7l44.1,0
										c4.8,0,8.8-1.7,9.1-3.7l0.3-2.4C727,2392.5,723.4,2390.9,718.6,2390.9z"/>
									<path class="st5" d="M787.2,2390.9l-43.9,0c-4.8,0-8.8,1.7-9,3.7l-0.3,2.4c-0.2,2.1,3.5,3.7,8.2,3.7l44.1,0
										c4.8,0,8.8-1.7,8.9-3.7l0.2-2.4C795.7,2392.5,792,2390.9,787.2,2390.9z"/>
									<path class="st5" d="M855.9,2390.8l-43.9,0c-4.8,0-8.7,1.7-8.9,3.7l-0.2,2.4c-0.2,2.1,3.6,3.7,8.4,3.7l44.1,0
										c4.8,0,8.7-1.7,8.8-3.7l0.1-2.4C864.4,2392.5,860.6,2390.8,855.9,2390.8z"/>
									<path class="st5" d="M924.5,2390.8l-43.9,0c-4.7,0-8.7,1.7-8.8,3.7l-0.1,2.4c-0.1,2.1,3.7,3.7,8.5,3.7l44.1,0
										c4.8,0,8.7-1.7,8.7-3.7l0-2.4C933.1,2392.5,929.3,2390.8,924.5,2390.8z"/>
									<path class="st5" d="M993.2,2390.8l-43.8,0c-4.7,0-8.6,1.7-8.6,3.7l0,2.4c0,2.1,3.8,3.7,8.6,3.7l44,0
										c4.8,0,8.6-1.7,8.6-3.7l0-2.4C1001.8,2392.5,997.9,2390.8,993.2,2390.8z"/>
									<path class="st5" d="M1061.8,2390.8l-43.8,0c-4.7,0-8.6,1.7-8.5,3.7l0,2.4c0,2.1,3.9,3.7,8.7,3.7l44,0
										c4.8,0,8.5-1.7,8.5-3.7l-0.1-2.4C1070.4,2392.5,1066.5,2390.8,1061.8,2390.8z"/>
									<path class="st5" d="M1130.4,2390.8l-43.8,0c-4.7,0-8.5,1.7-8.4,3.7l0.1,2.4c0.1,2.1,4,3.7,8.8,3.7l44,0
										c4.8,0,8.5-1.7,8.3-3.7l-0.2-2.4C1139.1,2392.5,1135.2,2390.8,1130.4,2390.8z"/>
									<path class="st5" d="M1199.1,2390.8l-43.7,0c-4.7,0-8.4,1.7-8.3,3.7l0.2,2.4c0.2,2.1,4.2,3.7,8.9,3.7l43.9,0
										c4.8,0,8.4-1.7,8.2-3.7l-0.3-2.4C1207.8,2392.5,1203.8,2390.8,1199.1,2390.8z"/>
									<path class="st5" d="M1267.7,2390.8l-43.7,0c-4.7,0-8.4,1.7-8.2,3.7l0.3,2.4c0.2,2.1,4.3,3.7,9,3.7l43.9,0
										c4.8,0,8.4-1.7,8.1-3.7l-0.3-2.4C1276.5,2392.5,1272.4,2390.8,1267.7,2390.8z"/>
									<path class="st5" d="M1336.3,2390.8l-43.7,0c-4.7,0-8.3,1.7-8,3.7l0.3,2.4c0.3,2.1,4.4,3.7,9.1,3.7l43.9,0
										c4.7,0,8.3-1.7,8-3.7l-0.4-2.4C1345.2,2392.4,1341.1,2390.8,1336.3,2390.8z"/>
									<path class="st5" d="M1405,2390.8l-43.6,0c-4.7,0-8.3,1.7-7.9,3.7l0.4,2.4c0.4,2.1,4.5,3.7,9.2,3.7l43.8,0
										c4.7,0,8.3-1.7,7.8-3.7l-0.5-2.4C1413.9,2392.4,1409.7,2390.8,1405,2390.8z"/>
									<path class="st5" d="M1473.6,2390.8l-43.6,0c-4.7,0-8.2,1.7-7.8,3.7l0.5,2.4c0.4,2,4.6,3.7,9.3,3.7l43.8,0
										c4.7,0,8.2-1.7,7.7-3.7l-0.6-2.4C1482.5,2392.4,1478.3,2390.8,1473.6,2390.8z"/>
								</g>
								<path class="st5" d="M581.4,2390.9l-81.4,0c-4.8,0-9,1.7-9.4,3.7l-0.5,2.4c-0.5,2.1,3.1,3.7,7.9,3.7l81.8,0
									c4.8,0,9-1.7,9.3-3.7l0.4-2.4C589.7,2392.5,586.1,2390.9,581.4,2390.9z"/>
							</g>
							<g>
								<path class="st5" d="M1476.7,2404.4l-79.9,0c-4.8,0-8.3,1.7-7.9,3.7l3.6,18.9c0.4,2.1,4.6,3.8,9.4,3.8l80.8,0
									c4.8,0,8.3-1.7,7.8-3.8l-4.4-18.9C1485.7,2406.1,1481.5,2404.4,1476.7,2404.4z"/>
								<g>
									<path class="st5" d="M540.5,2404.6l-43.5,0c-4.8,0-9.1,1.7-9.5,3.8l-4.2,19c-0.5,2.1,3.1,3.8,8,3.8l44,0
										c4.9,0,9.1-1.7,9.5-3.8l3.6-19C548.8,2406.3,545.3,2404.6,540.5,2404.6z"/>
									<path class="st5" d="M609.5,2404.6l-43.4,0c-4.8,0-9,1.7-9.4,3.8l-3.6,19c-0.4,2.1,3.2,3.8,8.1,3.8l44,0
										c4.8,0,9.1-1.7,9.4-3.8l3-19C617.9,2406.3,614.3,2404.6,609.5,2404.6z"/>
									<path class="st5" d="M678.6,2404.6l-43.4,0c-4.8,0-8.9,1.7-9.3,3.8l-3,19c-0.3,2.1,3.3,3.8,8.2,3.8l43.9,0
										c4.8,0,9-1.7,9.3-3.8l2.4-19C687,2406.2,683.4,2404.6,678.6,2404.6z"/>
									<path class="st5" d="M747.7,2404.5l-43.4,0c-4.8,0-8.9,1.7-9.1,3.8l-2.4,19c-0.3,2.1,3.4,3.8,8.3,3.8l43.9,0
										c4.8,0,8.9-1.7,9.1-3.8l1.9-19C756.2,2406.2,752.5,2404.5,747.7,2404.5z"/>
									<path class="st5" d="M816.7,2404.5l-43.3,0c-4.8,0-8.8,1.7-9,3.8l-1.8,19c-0.2,2.1,3.6,3.8,8.4,3.8l43.9,0
										c4.8,0,8.9-1.7,9-3.8l1.3-19C825.3,2406.2,821.5,2404.5,816.7,2404.5z"/>
									<path class="st5" d="M885.8,2404.5l-43.3,0c-4.8,0-8.8,1.7-8.9,3.8l-1.2,19c-0.1,2.1,3.7,3.8,8.5,3.8l43.8,0
										c4.8,0,8.8-1.7,8.9-3.8l0.7-19C894.4,2406.2,890.6,2404.5,885.8,2404.5z"/>
									<path class="st5" d="M954.9,2404.5l-43.3,0c-4.8,0-8.7,1.7-8.8,3.8l-0.6,19c-0.1,2.1,3.8,3.8,8.6,3.8l43.8,0
										c4.8,0,8.8-1.7,8.8-3.8l0.1-19C963.5,2406.2,959.7,2404.5,954.9,2404.5z"/>
									<path class="st5" d="M1023.7,2404.5l-43.3,0c-4.8,0-8.6,1.7-8.6,3.7l0,19c0,2.1,3.9,3.8,8.7,3.8l43.8,0
										c4.8,0,8.7-1.7,8.6-3.8l-0.5-18.9C1032.4,2406.2,1028.5,2404.5,1023.7,2404.5z"/>
									<path class="st5" d="M1092.8,2404.5l-43.2,0c-4.8,0-8.6,1.7-8.5,3.7l0.6,18.9c0.1,2.1,4,3.8,8.9,3.8l43.7,0
										c4.8,0,8.6-1.7,8.5-3.8l-1.1-18.9C1101.5,2406.2,1097.5,2404.5,1092.8,2404.5z"/>
									<path class="st5" d="M1161.8,2404.5l-43.2,0c-4.8,0-8.5,1.7-8.4,3.7l1.2,18.9c0.1,2.1,4.1,3.8,9,3.8l43.7,0
										c4.8,0,8.6-1.7,8.4-3.8l-1.7-18.9C1170.6,2406.1,1166.6,2404.5,1161.8,2404.5z"/>
									<path class="st5" d="M1230.9,2404.5l-43.2,0c-4.8,0-8.5,1.7-8.3,3.7l1.8,18.9c0.2,2.1,4.3,3.8,9.1,3.8l43.7,0
										c4.8,0,8.5-1.7,8.3-3.8l-2.3-18.9C1239.8,2406.1,1235.7,2404.5,1230.9,2404.5z"/>
									<path class="st5" d="M1300,2404.4l-43.1,0c-4.8,0-8.4,1.7-8.2,3.7l2.4,18.9c0.3,2.1,4.4,3.8,9.2,3.8l43.7,0
										c4.8,0,8.5-1.7,8.1-3.8l-2.9-18.9C1308.9,2406.1,1304.7,2404.4,1300,2404.4z"/>
									<path class="st5" d="M1369,2404.4l-43.1,0c-4.8,0-8.4,1.7-8,3.7l3,18.9c0.3,2.1,4.5,3.8,9.3,3.8l43.6,0
										c4.8,0,8.4-1.7,8-3.8l-3.5-18.9C1377.9,2406.1,1373.8,2404.4,1369,2404.4z"/>
								</g>
							</g>
							<g>
								<path class="st5" d="M642.7,2435.1l-44,0c-4.9,0-9.1,1.7-9.5,3.9l-3.3,19.5c-0.4,2.2,3.3,3.9,8.2,3.9l44.6,0
									c4.9,0,9.1-1.8,9.5-3.9l2.8-19.5C651.2,2436.9,647.5,2435.1,642.7,2435.1z"/>
								<path class="st5" d="M712.7,2435.1l-44,0c-4.9,0-9,1.7-9.3,3.9l-2.7,19.5c-0.3,2.2,3.4,3.9,8.3,3.9l44.5,0
									c4.9,0,9.1-1.8,9.3-3.9l2.2-19.5C721.3,2436.8,717.6,2435.1,712.7,2435.1z"/>
								<path class="st5" d="M782.8,2435.1l-44,0c-4.9,0-9,1.7-9.2,3.9l-2.1,19.5c-0.2,2.2,3.6,3.9,8.5,3.9l44.5,0
									c4.9,0,9-1.8,9.2-3.9l1.6-19.5C791.5,2436.8,787.7,2435.1,782.8,2435.1z"/>
								<path class="st5" d="M853,2435.1l-43.9,0c-4.8,0-8.9,1.7-9.1,3.9l-1.5,19.5c-0.2,2.2,3.7,3.9,8.6,3.9l44.5,0
									c4.9,0,9-1.8,9.1-3.9l1-19.5C861.7,2436.8,857.8,2435.1,853,2435.1z"/>
								<path class="st5" d="M923.1,2435l-43.9,0c-4.8,0-8.8,1.7-8.9,3.9l-0.9,19.5c-0.1,2.2,3.8,3.9,8.7,3.9l44.4,0
									c4.9,0,8.9-1.8,8.9-3.9l0.4-19.5C931.8,2436.8,927.9,2435,923.1,2435z"/>
								<path class="st5" d="M993.1,2435l-43.9,0c-4.8,0-8.8,1.7-8.8,3.9l-0.3,19.5c0,2.2,3.9,3.9,8.8,3.9l44.4,0
									c4.9,0,8.8-1.8,8.8-3.9l-0.3-19.5C1001.9,2436.7,997.9,2435,993.1,2435z"/>
								<path class="st5" d="M1063,2435l-43.8,0c-4.8,0-8.7,1.7-8.7,3.9l0.3,19.5c0,2.2,4,3.9,8.9,3.9l44.4,0c4.9,0,8.8-1.8,8.7-3.9
									l-0.9-19.5C1071.9,2436.7,1067.9,2435,1063,2435z"/>
								<path class="st5" d="M1133.1,2435l-43.8,0c-4.8,0-8.7,1.7-8.6,3.9l0.9,19.5c0.1,2.2,4.2,3.9,9,3.9l44.3,0
									c4.9,0,8.7-1.8,8.6-3.9l-1.5-19.5C1142,2436.7,1138,2435,1133.1,2435z"/>
								<path class="st5" d="M1203.2,2435l-43.8,0c-4.8,0-8.6,1.7-8.4,3.9l1.5,19.5c0.2,2.2,4.3,3.9,9.2,3.9l44.3,0
									c4.9,0,8.7-1.8,8.4-3.9l-2.1-19.5C1212.2,2436.7,1208.1,2435,1203.2,2435z"/>
								<path class="st5" d="M1273.3,2434.9l-43.7,0c-4.8,0-8.5,1.7-8.3,3.8l2.2,19.5c0.2,2.2,4.4,3.9,9.3,3.9l44.3,0
									c4.9,0,8.6-1.8,8.3-3.9l-2.7-19.5C1282.3,2436.6,1278.2,2434.9,1273.3,2434.9z"/>
								<path class="st5" d="M1343.5,2434.9l-43.7,0c-4.8,0-8.5,1.7-8.2,3.8l2.8,19.5c0.3,2.2,4.5,3.9,9.4,3.9l44.2,0
									c4.9,0,8.5-1.8,8.2-3.9l-3.3-19.4C1352.5,2436.6,1348.3,2434.9,1343.5,2434.9z"/>
								<path class="st5" d="M1413.6,2434.9l-43.7,0c-4.8,0-8.4,1.7-8.1,3.8l3.4,19.4c0.4,2.2,4.6,3.9,9.5,3.9l44.2,0
									c4.9,0,8.5-1.8,8-3.9l-3.9-19.4C1422.6,2436.6,1418.4,2434.9,1413.6,2434.9z"/>
								<path class="st5" d="M1483.7,2434.9l-43.7,0c-4.8,0-8.4,1.7-7.9,3.8l4,19.4c0.4,2.2,4.8,3.9,9.6,3.9l44.2,0
									c4.9,0,8.4-1.8,7.9-3.9l-4.5-19.4C1492.8,2436.6,1488.5,2434.9,1483.7,2434.9z"/>
							</g>
							<g>
								<path class="st5" d="M658.1,2466.6l-44.6,0c-4.9,0-9.2,1.8-9.6,4l-3.2,20.1c-0.4,2.2,3.4,4,8.4,4l45.2,0
									c5,0,9.3-1.8,9.6-4.1l2.7-20.1C666.8,2468.3,663,2466.6,658.1,2466.6z"/>
								<path class="st5" d="M729.4,2466.5l-44.6,0c-4.9,0-9.1,1.8-9.4,4l-2.6,20.1c-0.3,2.2,3.5,4,8.5,4l45.1,0
									c5,0,9.2-1.8,9.4-4.1l2.1-20.1C738.1,2468.3,734.3,2466.5,729.4,2466.5z"/>
								<path class="st5" d="M800.8,2466.5l-44.6,0c-4.9,0-9.1,1.8-9.3,4l-2,20.1c-0.2,2.2,3.6,4,8.6,4l45.1,0c5,0,9.1-1.8,9.3-4.1
									l1.4-20.1C809.5,2468.3,805.7,2466.5,800.8,2466.5z"/>
								<path class="st5" d="M872.1,2466.5l-44.5,0c-4.9,0-9,1.8-9.2,4l-1.4,20.1c-0.2,2.2,3.8,4,8.7,4l45.1,0c5,0,9.1-1.8,9.2-4.1
									l0.8-20C880.9,2468.2,877,2466.5,872.1,2466.5z"/>
								<path class="st5" d="M943.4,2466.4l-44.5,0c-4.9,0-9,1.8-9,4l-0.7,20c-0.1,2.2,3.9,4,8.9,4l45.1,0c5,0,9-1.8,9-4.1l0.2-20
									C952.3,2468.2,948.3,2466.4,943.4,2466.4z"/>
								<path class="st5" d="M1014.5,2466.4l-44.5,0c-4.9,0-8.9,1.8-8.9,4l-0.1,20c0,2.2,4,4,9,4l45,0c5,0,8.9-1.8,8.9-4l-0.4-20
									C1023.4,2468.2,1019.4,2466.4,1014.5,2466.4z"/>
								<path class="st5" d="M1085.8,2466.4l-44.4,0c-4.9,0-8.8,1.8-8.8,4l0.5,20c0.1,2.2,4.1,4,9.1,4l45,0c5,0,8.9-1.8,8.8-4
									l-1.1-20C1094.8,2468.1,1090.7,2466.3,1085.8,2466.4z"/>
								<path class="st5" d="M1157.1,2466.3l-44.4,0c-4.9,0-8.8,1.8-8.6,4l1.2,20c0.1,2.2,4.3,4,9.2,4l45,0c5,0,8.8-1.8,8.6-4
									l-1.7-20C1166.1,2468.1,1162,2466.3,1157.1,2466.3z"/>
								<path class="st5" d="M1228.4,2466.3l-44.4,0c-4.9,0-8.7,1.8-8.5,4l1.8,20c0.2,2.2,4.4,4,9.3,4l44.9,0c5,0,8.8-1.8,8.5-4
									l-2.3-20C1237.5,2468,1233.3,2466.3,1228.4,2466.3z"/>
								<path class="st5" d="M1299.8,2466.2l-44.3,0c-4.9,0-8.6,1.8-8.4,4l2.4,20c0.3,2.2,4.5,4,9.5,4l44.9,0c5,0,8.7-1.8,8.4-4
									l-3-20C1308.9,2468,1304.7,2466.2,1299.8,2466.2z"/>
								<path class="st5" d="M1371.1,2466.2l-44.3,0c-4.9,0-8.6,1.8-8.3,4l3,20c0.3,2.2,4.6,4,9.6,4l44.9,0c4.9,0,8.6-1.8,8.2-4
									l-3.6-20C1380.2,2468,1376,2466.2,1371.1,2466.2z"/>
							</g>
							<g>
								<path class="st5" d="M685.3,2498.9l-45.2,0c-5,0-9.3,1.8-9.6,4.1l-3.1,20.7c-0.3,2.3,3.5,4.2,8.5,4.2l45.8,0
									c5.1,0,9.4-1.9,9.7-4.2l2.5-20.6C694.1,2500.7,690.3,2498.9,685.3,2498.9z"/>
								<path class="st5" d="M757.2,2498.8l-45.2,0c-5,0-9.2,1.8-9.5,4.1l-2.4,20.6c-0.3,2.3,3.6,4.2,8.7,4.2l45.8,0
									c5,0,9.3-1.9,9.5-4.2l1.8-20.6C766.1,2500.6,762.2,2498.8,757.2,2498.8z"/>
								<path class="st5" d="M829.2,2498.8l-45.2,0c-5,0-9.2,1.8-9.4,4.1l-1.8,20.6c-0.2,2.3,3.7,4.2,8.8,4.2l45.7,0
									c5,0,9.2-1.9,9.4-4.2l1.2-20.6C838.1,2500.6,834.2,2498.8,829.2,2498.8z"/>
								<path class="st5" d="M901.1,2498.7l-45.2,0c-5,0-9.1,1.8-9.2,4.1l-1.1,20.6c-0.1,2.3,3.9,4.2,8.9,4.2l45.7,0
									c5,0,9.2-1.9,9.2-4.2l0.6-20.6C910.1,2500.5,906.1,2498.7,901.1,2498.7z"/>
								<path class="st5" d="M973,2498.7l-45.1,0c-5,0-9.1,1.8-9.1,4.1l-0.5,20.6c-0.1,2.3,4,4.2,9,4.2l45.7,0c5,0,9.1-1.9,9.1-4.2
									l-0.1-20.6C982,2500.5,978,2498.7,973,2498.7z"/>
								<path class="st5" d="M1044.7,2498.6l-45.1,0c-5,0-9,1.8-9,4.1l0.2,20.6c0,2.3,4.1,4.2,9.2,4.2l45.7,0c5,0,9.1-1.9,9-4.2
									l-0.7-20.6C1053.7,2500.4,1049.6,2498.6,1044.7,2498.6z"/>
								<path class="st5" d="M1116.6,2498.6l-45.1,0c-5,0-8.9,1.8-8.8,4.1l0.8,20.6c0.1,2.3,4.2,4.2,9.3,4.2l45.6,0
									c5,0,9-1.9,8.8-4.2l-1.4-20.6C1125.7,2500.4,1121.6,2498.6,1116.6,2498.6z"/>
								<path class="st5" d="M1188.5,2498.5l-45,0c-5,0-8.9,1.8-8.7,4.1l1.4,20.6c0.2,2.3,4.4,4.2,9.4,4.2l45.6,0
									c5,0,8.9-1.9,8.7-4.2l-2-20.6C1197.7,2500.3,1193.5,2498.5,1188.5,2498.5z"/>
								<path class="st5" d="M1260.5,2498.5l-45,0c-5,0-8.8,1.8-8.6,4.1l2.1,20.6c0.2,2.3,4.5,4.2,9.5,4.1l45.6,0
									c5,0,8.9-1.9,8.6-4.2l-2.7-20.6C1269.7,2500.3,1265.4,2498.5,1260.5,2498.5z"/>
								<path class="st5" d="M1332.4,2498.4l-45,0c-5,0-8.7,1.8-8.4,4.1l2.7,20.6c0.3,2.3,4.6,4.2,9.6,4.1l45.5,0
									c5,0,8.8-1.9,8.4-4.2l-3.3-20.6C1341.6,2500.3,1337.3,2498.4,1332.4,2498.4z"/>
							</g>
							<g>
								<path class="st5" d="M515.6,2532.2l-46,0c-5.1,0-9.6,1.9-10.1,4.2l-4.6,21.3c-0.5,2.4,3.2,4.3,8.4,4.3l46.6,0
									c5.1,0,9.7-1.9,10.1-4.3l4.1-21.3C524.4,2534.1,520.7,2532.2,515.6,2532.2z"/>
								<path class="st5" d="M589.5,2532.2l-45.9,0c-5.1,0-9.5,1.9-10,4.2l-4,21.3c-0.4,2.4,3.4,4.3,8.5,4.3l46.5,0
									c5.1,0,9.6-1.9,10-4.3l3.4-21.3C598.3,2534.1,594.5,2532.2,589.5,2532.2z"/>
								<path class="st5" d="M663.4,2532.1l-45.9,0c-5.1,0-9.5,1.9-9.8,4.2l-3.3,21.3c-0.4,2.4,3.5,4.3,8.6,4.3l46.5,0
									c5.1,0,9.5-1.9,9.8-4.3l2.7-21.2C672.3,2534,668.4,2532.1,663.4,2532.1z"/>
							</g>
							<g>
								<path class="st5" d="M1282.2,2531.6l-45.6,0c-5,0-8.9,1.9-8.7,4.2l2.3,21.2c0.3,2.4,4.6,4.3,9.7,4.3l46.2,0
									c5.1,0,9-1.9,8.6-4.3l-2.9-21.2C1291.6,2533.5,1287.3,2531.6,1282.2,2531.6z"/>
								<path class="st5" d="M1356.7,2531.6l-45.6,0c-5,0-8.8,1.9-8.5,4.2l3,21.2c0.3,2.4,4.7,4.3,9.8,4.3l46.2,0
									c5.1,0,8.9-1.9,8.5-4.3l-3.6-21.2C1366.1,2533.4,1361.7,2531.6,1356.7,2531.6z"/>
								<path class="st5" d="M1431.2,2531.5l-45.6,0c-5,0-8.8,1.9-8.4,4.2l3.7,21.2c0.4,2.4,4.9,4.3,10,4.3l46.1,0
									c5.1,0,8.8-1.9,8.4-4.3l-4.2-21.2C1440.7,2533.4,1436.2,2531.5,1431.2,2531.5z"/>
								<path class="st5" d="M1505.7,2531.4l-45.5,0c-5,0-8.7,1.9-8.2,4.2l4.3,21.2c0.5,2.4,5,4.3,10.1,4.3l46.1,0
									c5.1,0,8.8-1.9,8.2-4.3l-4.9-21.2C1515.2,2533.3,1510.7,2531.4,1505.7,2531.4z"/>
							</g>
							<path class="st5" d="M613.3,2498.9l-136.6,0.1c-5,0-9.5,1.8-9.9,4.1l-4.5,20.7c-0.5,2.3,3.2,4.2,8.3,4.2l138.3-0.1
								c5.1,0,9.4-1.9,9.8-4.2l3.1-20.7C622.1,2500.7,618.3,2498.9,613.3,2498.9z"/>
							<path class="st5" d="M1498.1,2498.3l-139.8,0.1c-5,0-8.7,1.8-8.3,4.1l3.4,20.6c0.4,2.3,4.7,4.1,9.8,4.1l141.5-0.1
								c5,0,8.6-1.9,8.1-4.2l-4.8-20.6C1507.5,2500.1,1503.1,2498.3,1498.1,2498.3z"/>
							<path class="st5" d="M587.7,2466.6l-104,0.1c-4.9,0-9.3,1.8-9.8,4l-4.4,20.1c-0.5,2.2,3.2,4.1,8.2,4l105.3-0.1
								c5,0,9.3-1.8,9.7-4.1l3.3-20.1C596.3,2468.4,592.6,2466.6,587.7,2466.6z"/>
							<path class="st5" d="M1490.8,2466.2l-93.4,0c-4.9,0-8.5,1.8-8.1,4l3.7,20c0.4,2.2,4.7,4,9.7,4l94.6-0.1c4.9,0,8.5-1.8,8-4
								l-4.6-20C1500,2467.9,1495.7,2466.2,1490.8,2466.2z"/>
							<path class="st5" d="M1118.7,2531.7L782,2532c-5.1,0-9.3,1.9-9.5,4.2l-1.8,21.2c-0.2,2.4,3.8,4.3,8.9,4.3l340.9-0.3
								c5.1,0,9.1-1.9,9-4.3l-1.4-21.2C1127.9,2533.6,1123.7,2531.7,1118.7,2531.7z"/>
							<path class="st5" d="M572.2,2435.2l-81.7,0c-4.9,0-9.2,1.7-9.6,3.9l-4.3,19.5c-0.5,2.2,3.1,3.9,8.1,3.9l82.7,0
								c4.9,0,9.2-1.8,9.6-3.9l3.4-19.5C580.6,2436.9,577,2435.2,572.2,2435.2z"/>
							<path class="st5" d="M755.8,2532l-64.8,0.1c-5.1,0-9.4,1.9-9.7,4.2l-2.6,21.2c-0.3,2.4,3.6,4.3,8.8,4.3l65.6-0.1
								c5.1,0,9.4-1.9,9.7-4.3l1.9-21.2C764.8,2533.9,760.8,2532,755.8,2532z"/>
							<path class="st5" d="M1209.2,2531.7l-64.5,0.1c-5,0-9,1.9-8.8,4.2l1.5,21.2c0.2,2.4,4.4,4.3,9.5,4.3l65.3-0.1
								c5.1,0,9-1.9,8.8-4.3l-2.2-21.2C1218.5,2533.5,1214.2,2531.7,1209.2,2531.7z"/>
						</g>
					</g>
				</g>
				<line class="st4" x1="986.7" y1="1693.9" x2="986.7" y2="1693.9"/>
			</g>
		</g>
		<g>
			<path class="st4" d="M465.9,2252.1v-354.4c0-3.5,2.8-6.3,6.3-6.3h631.7c3.5,0,6.3,2.8,6.3,6.3v354.4c0,3.5-2.8,6.3-6.3,6.3H472.2
				C468.7,2258.4,465.9,2255.6,465.9,2252.1z"/>
			
				<rect x="632.2" y="1780.4" transform="matrix(-1.836970e-16 1 -1 -1.836970e-16 2869.9253 1293.8612)" class="st8" width="311.7" height="603.1"/>
			<rect x="514.8" y="1947.1" class="st9" width="539.3" height="119.4"/>
			<rect x="514.8" y="2093.7" class="st7" width="161.8" height="91.7"/>
			<rect x="892.3" y="2093.7" class="st7" width="161.8" height="91.7"/>
			<rect x="703.5" y="2093.7" class="st7" width="161.8" height="91.7"/>
			<rect x="514.8" y="2197.1" class="st10" width="161.8" height="9.8"/>
			<rect x="892.3" y="2197.1" class="st10" width="161.8" height="9.8"/>
			<rect x="703.5" y="2197.1" class="st10" width="161.8" height="9.8"/>
			<circle class="st7" cx="489.5" cy="1908.5" r="5.5"/>
			<circle class="st7" cx="505.5" cy="1908.5" r="5.5"/>
			<circle class="st7" cx="521.7" cy="1908.5" r="5.5"/>
		</g>
		<g>
			<path class="st7" d="M1039,2195.7v-346.3c0-5.7,4.6-10.4,10.4-10.4h426.9c5.7,0,10.4,4.6,10.4,10.4v346.3
				c0,5.7-4.6,10.4-10.4,10.4h-426.9C1043.6,2206.1,1039,2201.4,1039,2195.7z"/>
			<path class="st4" d="M1041.6,2197.2v-354.4c0-3.5,2.8-6.3,6.3-6.3H1483c3.5,0,6.3,2.8,6.3,6.3v354.4c0,3.5-2.8,6.3-6.3,6.3
				h-435.1C1044.4,2203.5,1041.6,2200.6,1041.6,2197.2z"/>
			
				<rect x="1112.6" y="1820.5" transform="matrix(-1.836970e-16 1 -1 -1.836970e-16 3295.4619 764.5733)" class="st5" width="305.6" height="419"/>
			<rect x="1082.8" y="1901" class="st11" width="124.4" height="9.8"/>
			<rect x="1103.9" y="1920.1" class="st12" width="73.4" height="9.8"/>
			<rect x="1118.1" y="1939.2" class="st10" width="129.9" height="9.8"/>
			<rect x="1118.1" y="1958.2" class="st10" width="89" height="9.8"/>
			<rect x="1102.8" y="1977.3" class="st12" width="13" height="9.8"/>
			<rect x="1082.8" y="1996.4" class="st11" width="57.2" height="9.8"/>
			<rect x="1082.8" y="2026.9" class="st11" width="57.2" height="9.8"/>
			<rect x="1103.9" y="2046" class="st12" width="103.2" height="9.8"/>
			<rect x="1118.1" y="2065" class="st10" width="161.8" height="9.8"/>
			<rect x="1118.1" y="2084.1" class="st10" width="60.5" height="9.8"/>
			<rect x="1118.1" y="2103.2" class="st10" width="118.9" height="9.8"/>
			<rect x="1102.8" y="2122.3" class="st12" width="35.3" height="9.8"/>
			<rect x="1082.8" y="2141.4" class="st11" width="28.6" height="9.8"/>
			<circle class="st7" cx="1059.8" cy="1857.5" r="5.5"/>
			<circle class="st7" cx="1075.8" cy="1857.5" r="5.5"/>
			<circle class="st7" cx="1092" cy="1857.5" r="5.5"/>
		</g>
	</g>
	<path class="st13" d="M1979.4,0H-4.2l0,1241.6c346.2,246.3,744.1,154.8,828.7,244c9.1,23.5,11.4,46.9,7,70.4H706.6l285.1,273.8
		l285.1-273.8h-128.6c-6.7-23.5-3.2-46.9,10.7-70.4c84.9-89.6,455.4,3,818.5-247.3L1979.4,0z"/>
	<path class="st14" d="M1578.1,1309"/>
	<path class="st14" d="M397.9,1309"/>
	<g>
		<g>
			<g>
				<ellipse class="st9" cx="991.4" cy="1175.7" rx="295.5" ry="36"/>
				<g>
					<path class="st15" d="M994.2,567.4H753.8l74.5,599.5c0,0,33.4,15.6,165.8,15.6c132.4,0,165.8-15.6,165.8-15.6l74.5-599.5H994.2
						z"/>
					<path class="st7" d="M756.9,596.4c0,0,91.5,12.8,228.2,12.8s246.2-12.8,246.2-12.8l3.1-28.9H753.8L756.9,596.4z"/>
					<path class="st8" d="M1245.7,557.2c0,0-1.4-7.7-0.1-14.1c1.4-6.4-13.5-19.3-13.5-19.3s-4.1-37.3-6.8-50.1
						c-2.7-12.9-231.2-18-231.2-18s-228.5,5.1-231.2,18c-2.7,12.9-6.8,50.1-6.8,50.1s-14.9,12.9-13.5,19.3
						c1.4,6.4-0.1,14.1-0.1,14.1l-9.4,20.6c0,0,163.6,11.6,260.9,11.6s260.9-11.6,260.9-11.6L1245.7,557.2z"/>
					<path class="st7" d="M768.3,684.2l36.9,302c69.2,10.1,189,11.1,189,11.1h0c0,0,119.8-1,189-11.1l36.9-302
						c-31.1,2-111.4,6.4-225.9,6.4S799.4,686.2,768.3,684.2z"/>
					<path class="st16" d="M1233.3,671.2c0.6-4.6-4-8.5-9.7-8.1c-28.4,1.9-110.5,6.5-229.4,6.5c-118.9,0-201-4.6-229.4-6.5
						c-5.7-0.4-10.3,3.5-9.7,8.1L794.2,953c0.4,3.2,3.3,5.8,7.2,6.4c68.5,10.5,192.8,11.5,192.8,11.5l0,0h0l0,0l0,0
						c0,0,124.3-1,192.8-11.5c3.9-0.6,6.7-3.2,7.2-6.4L1233.3,671.2z"/>
					<path class="st7" d="M800.1,487.8c0,0,183.8,24,370.1,0c0,0-61.7,18-185.1,18S800.1,487.8,800.1,487.8z"/>
					<path class="st3" d="M1109.8,480c0,0,18.2-3.2,11.6-11.6c-6.6-8.4,36,7.7,27,11.6C1139.4,483.9,1125.2,490.3,1109.8,480z"/>
				</g>
			</g>
			<path class="st8" d="M1135.4,431.9c12.8,0,38.2-29,11.7-55.5c-26.4-26.4,0-59.3,0-59.3l0,0c-10.2,5.6-18.3,14.8-21.5,26.1
				c-3.3,11.6-3.4,26.5,9.9,39.7C1161.9,409.3,1135.4,431.9,1135.4,431.9z"/>
			<path class="st8" d="M1166.3,343.7c8,0,23.9-18.2,7.3-34.7c-16.5-16.5,0-37.1,0-37.1l0,0c-6.4,3.5-11.4,9.3-13.5,16.3
				c-2.1,7.2-2.1,16.5,6.2,24.8C1182.9,329.6,1166.3,343.7,1166.3,343.7z"/>
			<path class="st8" d="M1100.3,323.2c8,0,23.9-13,7.3-24.8c-16.5-11.8,0-26.5,0-26.5l0,0c-6.4,2.5-11.4,6.6-13.5,11.6
				c-2.1,5.2-2.1,11.8,6.2,17.8C1116.9,313.1,1100.3,323.2,1100.3,323.2z"/>
		</g>
		<path class="st17" d="M800.1,699.1c0,0-4.5,147.6,26.9,227.7L800.1,699.1z"/>
		<path class="st17" d="M1155.7,733.6c0,0,2.3,125.2-13.6,193.2L1155.7,733.6z"/>
		<path class="st17" d="M1199.5,699.1c0,0,4.5,147.6-26.9,227.7L1199.5,699.1z"/>
	</g>
</g>
</svg>
